<?xml version="1.0" encoding="UTF-8" standalone="no"?>
<!-- Created with Inkscape (http://www.inkscape.org/) -->

<svg
   xmlns:dc="http://purl.org/dc/elements/1.1/"
   xmlns:cc="http://creativecommons.org/ns#"
   xmlns:rdf="http://www.w3.org/1999/02/22-rdf-syntax-ns#"
   xmlns:svg="http://www.w3.org/2000/svg"
   xmlns="http://www.w3.org/2000/svg"
   xmlns:sodipodi="http://sodipodi.sourceforge.net/DTD/sodipodi-0.dtd"
   xmlns:inkscape="http://www.inkscape.org/namespaces/inkscape"
   width="250"
   height="250"
   viewBox="0 0 66.145832 66.145835"
   version="1.1"
   id="svg8"
   inkscape:version="0.92.5 (2060ec1f9f, 2020-04-08)"
   sodipodi:docname="brand-cut.svg"
   inkscape:export-filename="/home/mehdi/repos/brand-red.png"
   inkscape:export-xdpi="96"
   inkscape:export-ydpi="96">
  <defs
     id="defs2" />
  <sodipodi:namedview
     id="base"
     pagecolor="#ffffff"
     bordercolor="#666666"
     borderopacity="1.0"
     inkscape:pageopacity="0"
     inkscape:pageshadow="2"
     inkscape:zoom="2.8"
     inkscape:cx="255.20007"
     inkscape:cy="133.92857"
     inkscape:document-units="mm"
     inkscape:current-layer="layer5"
     showgrid="false"
     units="px"
     inkscape:pagecheckerboard="true"
     inkscape:window-width="2488"
     inkscape:window-height="1376"
     inkscape:window-x="1920"
     inkscape:window-y="27"
     inkscape:window-maximized="1" />
  <metadata
     id="metadata5">
    <rdf:RDF>
      <cc:Work
         rdf:about="">
        <dc:format>image/svg+xml</dc:format>
        <dc:type
           rdf:resource="http://purl.org/dc/dcmitype/StillImage" />
        <dc:title></dc:title>
      </cc:Work>
    </rdf:RDF>
  </metadata>
  <g
     inkscape:groupmode="layer"
     id="layer5"
     inkscape:label="flat">
    <path
       style="fill:#ff2029;fill-opacity:1;stroke-width:1.05755389"
       d="M 126.78516 22.857422 A 105 105 0 0 0 21.785156 127.85742 A 105 105 0 0 0 126.78516 232.85742 A 105 105 0 0 0 231.78516 127.85742 A 105 105 0 0 0 126.78516 22.857422 z M 142.4668 37.953125 L 164.66406 60.136719 L 164.67188 91.519531 L 142.48633 113.71484 L 111.10352 113.72461 L 88.908203 91.539062 L 88.900391 60.15625 L 111.08398 37.960938 L 142.4668 37.953125 z M 75.351562 113.04492 L 105.66602 121.1582 L 121.36523 148.33203 L 113.25 178.64844 L 86.076172 194.3457 L 55.761719 186.23242 L 40.064453 159.05859 L 48.177734 128.74219 L 75.351562 113.04492 z M 177.12695 113.75586 L 204.30859 129.43945 L 212.43945 159.75 L 196.75586 186.93164 L 166.44336 195.0625 L 139.26172 179.37891 L 131.13281 149.06836 L 146.81641 121.88672 L 177.12695 113.75586 z "
       transform="scale(0.26458333)"
       id="path3830-2" />
  </g>
</svg>
